<svg xmlns="http://www.w3.org/2000/svg" viewBox="0 0 1017.6678 108.81673" height="116.071" width="1085.512"><path d="M0 54.753V.69h1017.668v108.127H0V54.753z" fill="#f7f7f7"/><path d="M0 54.408V0l7.155 1.723c3.936.947 115.92 24.772 248.852 52.943C388.94 82.837 499.134 106.433 500.883 107.1c1.75.668-110.234 1.328-248.851 1.466L0 108.816V54.409zM516.784 107.1c1.75-.667 111.944-24.263 244.877-52.434C894.594 26.495 1006.577 2.67 1010.512 1.723L1017.668 0v108.817l-252.032-.251c-138.617-.138-250.6-.798-248.852-1.466z" fill="#2c2c2c"/></svg>