<svg xmlns="http://www.w3.org/2000/svg" viewBox="0 0 451.59013 442.04948" height="471.519" width="481.696"><path d="M0 221.025V0h451.59v442.049H0V221.025z" fill="#fff"/><path d="M217.05 437.292c-2.644-3.002-3.976-15.748-3.976-38.041v-33.527h25.441v33.62c0 24.896-1.178 34.798-4.542 38.162-5.698 5.698-11.786 5.621-16.924-.214zm-115.283-23.155c0-5.012 7.88-22.268 18.22-39.9 17.2-29.331 18.756-31.016 27.826-30.126 16.029 1.572 14.52 13.418-6.19 48.608-17.052 28.973-18.268 30.25-28.83 30.25-9.934 0-11.026-.875-11.026-8.832zm206.737-22.93c-19.196-33.545-20.42-45.567-4.794-47.074 8.939-.862 10.594.887 26.237 27.713 10.188 17.47 16.696 32.396 16.696 38.287 0 8.874-.881 9.655-10.892 9.655-10.38 0-11.658-1.34-27.247-28.58zM22.261 332.513c0-10.547 1.168-11.612 31.639-28.865 36.693-20.776 46.277-21.843 46.277-5.154 0 10.136-1.522 11.564-29.658 27.827-17.418 10.068-33.495 17.143-38.957 17.143-8.48 0-9.3-.966-9.3-10.951zm354.594-7.766c-23.99-14.135-25.442-15.616-25.442-25.963 0-16.624 9.088-15.821 44.376 3.921 28.448 15.916 30.225 17.514 30.29 27.243.066 9.884-.452 10.324-11.856 10.062-8.156-.187-19.97-5.013-37.368-15.263zm-169.434-81.64c-3.887-2.723-7.076-8.09-7.086-11.926-.015-5.516-6.993-10.968-33.348-26.056-32.968-18.875-33.329-19.21-33.373-31.007-.043-11.498.35-11.926 10.988-11.926 7.53 0 19.58 5.048 37.954 15.9 22.9 13.527 29.362 15.902 43.265 15.902 14.598 0 20.747-2.57 57.562-24.052 47.998-28.01 57.85-29.737 59.46-10.431l.969 11.63-46.231 26.532c-37.273 21.392-46.242 27.884-46.288 33.508-.075 9.28-11.551 16.877-25.498 16.877-6.218 0-14.486-2.228-18.374-4.951zM3.975 227.398c-5.066-5.753-4.993-7.4.568-12.96 3.39-3.391 13.478-4.544 39.753-4.544h35.21v22.261l-35.778-.12c-26.798-.091-36.775-1.255-39.753-4.637zm368.11-6.373v-11.131h35.21c26.274 0 36.362 1.153 39.752 4.543 2.499 2.499 4.543 5.463 4.543 6.588 0 1.124-2.044 4.089-4.543 6.587-3.39 3.39-13.478 4.543-39.753 4.543h-35.21v-11.13zM54.932 139.099c-27.505-15.617-29.347-17.308-29.417-26.997-.068-9.657.64-10.335 10.788-10.335 7.174 0 19.857 5.184 37.367 15.275 25.14 14.488 26.507 15.84 26.507 26.237 0 16.652-10.216 15.708-45.245-4.18zm296.13 12.192c-4.73-12.327.536-18.572 30.009-35.585 17.397-10.042 33.502-17.12 38.957-17.12 8.48 0 9.3.967 9.3 10.951 0 10.537-1.18 11.62-31.209 28.622-31.645 17.918-43.907 21.34-47.057 13.132zM121.643 70.204c-10.187-17.471-16.696-32.396-16.696-38.288 0-8.873.881-9.655 10.892-9.655 10.38 0 11.658 1.34 27.247 28.58 19.196 33.546 20.42 45.569 4.794 47.075-8.939.862-10.594-.886-26.237-27.712zM294.7 96.466c-5.444-5.443-.698-20.009 15.475-47.488 16.838-28.61 18.07-29.897 28.622-29.897 9.935 0 11.026.875 11.026 8.832 0 5.007-7.852 22.22-18.133 39.752-15.646 26.68-19.28 30.922-26.502 30.922-4.602 0-9.322-.954-10.488-2.12zm-81.626-53.76C213.074 9.168 215.805 0 225.795 0s12.72 9.168 12.72 42.706v33.62h-25.44v-33.62z" fill="#fefefe"/></svg>