<svg xmlns="http://www.w3.org/2000/svg" viewBox="0 0 298.70861 297.63414" height="317.476" width="318.623"><path d="M141.288 291.374c0-5.395 2.12-6.36 13.976-6.36 7.687 0 23.292-2.878 34.679-6.395 53.914-16.652 94.455-69.79 94.455-123.806 0-14.295 1.235-18.51 6.36-21.711 6.086-3.801 6.36-3.176 6.36 14.468 0 70.953-52.51 133.984-122.227 146.718-27.82 5.081-33.603 4.58-33.603-2.914zm-28.986-2.028c-2.377-2.865-4.419-11.81-4.537-19.876-.118-8.068-2.056-18.962-4.307-24.209-6.989-16.292-2.238-37.783 15.055-68.115 8.559-15.01 20.404-36.585 26.323-47.945 6.117-11.738 19.687-29.668 31.434-41.534 24.502-24.749 66.197-58.718 68.835-56.08 2.493 2.493-20.79 45.372-41.879 77.128-9.367 14.105-26.645 35.354-38.395 47.22l-21.365 21.576 12.01 11.003c11.462 10.5 11.948 11.758 10.64 27.515-1.78 21.433-9.274 32.35-30.386 44.264-17.784 10.037-18.381 11.54-11.606 29.196 2.605 6.79-6.156 6.684-11.822-.143zm34.45-58.071c9.562-14.238 9.29-24.288-.838-30.924-6.85-4.489-9.272-4.673-15.757-1.203-8.152 4.363-17.49 20.835-17.49 30.852 0 17.246 22.787 18.098 34.085 1.275zm8.847-78.24c0-8.061-12.631-10.555-15.507-3.061-2.83 7.375.636 11.54 8.652 10.398 4.41-.628 6.855-3.246 6.855-7.337zM74.19 277.098c-28.697-14.95-52.546-43.477-66.496-79.54-9.949-25.72-10.3-71.072-.752-97.334C37.069 17.35 124.838-21.352 207.278 11.884c9.182 3.702 16.696 7.911 16.696 9.354 0 6.218-7.379 5.792-29.758-1.72C102.442-11.29 10.9 53.002 10.9 148.265c0 47.902 27.27 95.705 67.58 118.465 6.93 3.914 11.926 9.153 11.926 12.509 0 3.176-.358 5.708-.795 5.627-.438-.082-7.377-3.577-15.421-7.768zm-20.67-112.63c-14.165-6.433-17.179-11.2-17.179-27.165 0-36.813 65.164-45.923 79.578-11.126 4.364 10.536 2.299 25.945-4.962 37.027-4.168 6.36-7.399 7.313-24.6 7.252-12.39-.043-24.684-2.286-32.837-5.988zm45.437-18.078c5.772-7.894 5.226-12.969-2.192-20.387-9.277-9.277-29.815-8.636-39.691 1.24-8.903 8.903-7.652 19.963 2.764 24.436 10.456 4.489 34.329 1.261 39.119-5.29zm97.69-4.83c8.033-8.934 14.606-17.88 14.606-19.878 0-2.173 14.762-6.005 36.743-9.539 20.208-3.248 39.886-6.692 43.728-7.653l6.985-1.747-6.357 7.19c-10.451 11.82-30.584 21.92-70.274 35.254-20.658 6.94-38.117 12.618-38.798 12.618-.681 0 5.334-7.31 13.367-16.245zm66.435-66.759c-9.195-14.309-10.93-25.123-4.03-25.123 1.426 0 7.695 8.155 13.93 18.123 8.357 13.36 10.302 18.78 7.4 20.623-5.924 3.763-6.336 3.44-17.3-13.623z" fill="#826550"/></svg>