<svg xmlns="http://www.w3.org/2000/svg" viewBox="0 0 299.60644 288.21082" height="307.425" width="319.58"><path d="M78.859 284.395c-6.095-6.095-4.602-21.082 2.544-25.544 6.047-3.777 6.36-7.416 6.36-73.997 0-66.58-.313-70.22-6.36-73.997-7.146-4.463-8.639-19.45-2.544-25.544 2.42-2.42 14.927-3.851 34.187-3.913 23.78-.075 28.99-.851 24.01-3.575-10.266-5.616-14.31-12.681-14.31-25.003 0-15.163 11.658-26.66 27.031-26.66 28.566 0 37.897 37.893 12.721 51.663-4.98 2.724.23 3.5 24.01 3.575 19.261.062 31.768 1.493 34.188 3.913 6.094 6.095 4.602 21.081-2.544 25.544-6.048 3.777-6.36 7.416-6.36 73.997 0 66.58.312 70.22 6.36 73.997 7.146 4.462 8.638 19.45 2.544 25.544-2.727 2.727-22.968 3.816-70.919 3.816-47.95 0-68.191-1.09-70.918-3.816zm113.851-49.36V213.66l-20.671 20.487c-11.37 11.268-20.672 20.887-20.672 21.375 0 .488 9.303.887 20.672.887h20.671v-21.375zm0-92.749v-23.574l-42.622 41.021-42.623 41.022-.31 25.397-.31 25.398 42.932-42.844 42.933-42.845v-23.575zm-44.523-28.1c0-.488-9.302-.887-20.671-.887h-20.671v42.749l20.67-20.487c11.37-11.269 20.672-20.887 20.672-21.375zM40.283 247.35C-27.347 175.607-7.156 61.04 80.88 17c45.053-22.54 91.031-22.665 136.685-.373 88.95 43.434 109.757 158.535 41.707 230.723-14.67 15.564-16.324 16.5-19.441 11.003-2.679-4.723-2.256-6.652 1.977-9.02 2.962-1.658 11.715-11.613 19.453-22.124 66.503-90.339 1.717-215.676-111.483-215.676-24.598 0-54.008 7.568-71.096 18.294-55.294 34.709-79.464 97.298-60.848 157.57 6.33 20.492 29.158 55.916 39.914 61.935 4.234 2.37 4.656 4.298 1.978 9.021-3.117 5.496-4.77 4.56-19.442-11.003z" fill="#826550"/></svg>