<?xml version="1.0" encoding="UTF-8" standalone="no"?>
<svg
   xmlns:dc="http://purl.org/dc/elements/1.1/"
   xmlns:cc="http://creativecommons.org/ns#"
   xmlns:rdf="http://www.w3.org/1999/02/22-rdf-syntax-ns#"
   xmlns:svg="http://www.w3.org/2000/svg"
   xmlns="http://www.w3.org/2000/svg"
   version="1.1"
   id="svg2"
   viewBox="0 0 1017.6678 108.12721"
   height="30.515902mm"
   width="287.20847mm">
  <defs
     id="defs4" />
  <metadata
     id="metadata7">
    <rdf:RDF>
      <cc:Work
         rdf:about="">
        <dc:format>image/svg+xml</dc:format>
        <dc:type
           rdf:resource="http://purl.org/dc/dcmitype/StillImage" />
        <dc:title></dc:title>
      </cc:Work>
    </rdf:RDF>
  </metadata>
  <g
     transform="translate(266.69102,-535.44149)"
     id="layer1">
    <g
       transform="translate(2.8571429,132.85714)"
       id="g4151">
      <path
         id="path4155"
         d="m -269.54816,456.64795 0,-54.0636 508.8339,0 508.8339,0 0,54.0636 0,54.06361 -508.8339,0 -508.8339,0 0,-54.06361 z"
         style="fill:#fefefe" />
      <path
         id="path4153"
         d="m -269.54816,456.64795 c 0,-29.73498 1.07332,-54.0209 2.38516,-53.96871 1.31184,0.0522 115.44169,24.27183 253.621896,53.82142 l 251.236734,53.72653 -253.621893,0.24218 -253.621897,0.24219 0,-54.06361 z m 761.66074,-0.1473 c 138.18021,-29.54958 252.31006,-53.76922 253.6219,-53.82141 1.31184,-0.0522 2.38516,24.23373 2.38516,53.96871 l 0,54.06361 -253.6219,-0.24217 -253.62189,-0.24218 251.23673,-53.72653 z"
         style="fill:#f7f4f1" />
    </g>
    <path
       id="path4149"
       d=""
       style="fill:#000000" />
    <path
       id="path4147"
       d=""
       style="fill:#000000" />
  </g>
</svg>
