<?xml version="1.0" encoding="UTF-8" standalone="no"?>
<svg
   xmlns:dc="http://purl.org/dc/elements/1.1/"
   xmlns:cc="http://creativecommons.org/ns#"
   xmlns:rdf="http://www.w3.org/1999/02/22-rdf-syntax-ns#"
   xmlns:svg="http://www.w3.org/2000/svg"
   xmlns="http://www.w3.org/2000/svg"
   version="1.1"
   id="svg2"
   viewBox="0 0 299.84982 278.63066"
   height="78.635765mm"
   width="84.624283mm">
  <defs
     id="defs4" />
  <metadata
     id="metadata7">
    <rdf:RDF>
      <cc:Work
         rdf:about="">
        <dc:format>image/svg+xml</dc:format>
        <dc:type
           rdf:resource="http://purl.org/dc/dcmitype/StillImage" />
        <dc:title></dc:title>
      </cc:Work>
    </rdf:RDF>
  </metadata>
  <g
     transform="translate(-66.555914,-16.425044)"
     id="layer1">
    <path
       id="path4160"
       d="m 160.88845,290.5485 c 4.60763,-4.55167 22.00864,-9.5511 45.31761,-13.02006 l 12.03896,-1.79171 -0.90822,-30.84173 -0.90822,-30.84173 -24.0181,-0.91751 -24.01811,-0.91751 -10.37869,23.61653 c -15.56781,35.42425 -18.68948,37.49599 -54.82106,36.38274 -27.670033,-0.85254 -29.944533,-1.41766 -30.835503,-7.66136 -1.22637,-8.59418 6.04915,-10.6497 37.896903,-10.70681 l 24.21413,-0.0434 8.18213,-11.92579 c 9.49956,-13.84602 14.22569,-29.41697 8.92872,-29.41697 -7.90381,0 -16.24582,-12.86402 -16.24582,-25.05229 0,-14.27607 4.50234,-19.05296 20.3876,-21.63078 9.11747,-1.47956 11.41452,-3.2739 11.41452,-8.91644 0,-11.41326 13.27349,-28.11444 28.64757,-36.04538 12.6483,-6.5248 17.81947,-7.24154 45.12648,-6.25468 l 30.84119,1.11459 5.05834,-22.73629 c 6.15705,-27.67476 16.20862,-48.12309 27.80998,-56.57499 11.55312,-8.41676 32.09692,-4.35088 33.66253,6.66224 1.24243,8.7397 -34.11257,118.47727 -47.59364,147.72481 l -9.88103,21.43718 -21.05833,0.93106 -21.05832,0.93105 -0.9054,30.6073 c -0.87393,29.54398 -0.65297,30.67492 6.36043,32.55375 3.9962,1.07055 10.12801,1.97397 13.62624,2.00761 9.94349,0.0956 28.28986,5.85388 35.12924,11.02581 5.54162,4.19057 -1.5117,4.70959 -65.22768,4.7998 -62.35448,0.0883 -70.84889,-0.48396 -66.78445,-4.49904 z M 269.66931,159.19461 c -0.92431,-11.80654 -3.12603,-22.40233 -4.89272,-23.5462 -6.94381,-4.4959 -37.23407,-6.1114 -50.0223,-2.66788 -14.39615,3.87648 -28.53772,16.55485 -28.53772,25.58499 0,4.34527 3.73538,6.10373 16.69611,7.85981 12.97287,1.75773 65.8487,12.6174 68.00835,13.9676 0.23586,0.14746 -0.32741,-9.39178 -1.25172,-21.19832 z m 34.98771,119.39383 c -3.13475,-3.77713 -0.89666,-7.65884 12.32466,-21.37572 34.34997,-35.63749 46.28029,-85.60844 31.81139,-133.24416 -3.71036,-12.21555 -6.74611,-24.61161 -6.74611,-27.54679 0,-10.98039 8.18751,-2.08762 14.82734,16.10454 19.84374,54.36893 8.40896,109.65876 -31.55982,152.59914 -14.15012,15.20214 -17.43653,17.34398 -20.65746,13.46299 z M 78.685287,222.68422 C 61.449477,182.61851 62.624167,137.92183 81.944347,98.67696 109.4659,42.77277 176.71657,8.06219 237.92351,18.1703 c 32.89429,5.43237 51.04128,14.4683 41.23211,20.5307 -1.35702,0.83869 -11.01691,-1.37045 -21.46643,-4.90919 -29.04395,-9.83577 -69.0222,-7.33749 -97.73649,6.10764 -23.93743,11.20842 -52.19235,35.98956 -63.992493,56.12499 -20.48052,34.94736 -23.45019,85.60294 -7.11078,121.29293 9.92125,21.67085 9.79746,20.58749 2.3524,20.58749 -4.09478,0 -8.02459,-4.77881 -12.51654,-15.22064 z"
       style="fill:#826550;fill-opacity:1" />
  </g>
</svg>
