<?xml version="1.0" encoding="UTF-8" standalone="no"?>
<svg
   xmlns:dc="http://purl.org/dc/elements/1.1/"
   xmlns:cc="http://creativecommons.org/ns#"
   xmlns:rdf="http://www.w3.org/1999/02/22-rdf-syntax-ns#"
   xmlns:svg="http://www.w3.org/2000/svg"
   xmlns="http://www.w3.org/2000/svg"
   version="1.1"
   id="svg2"
   viewBox="0 0 451.59013 442.04948"
   height="124.75619mm"
   width="127.44877mm">
  <defs
     id="defs4" />
  <metadata
     id="metadata7">
    <rdf:RDF>
      <cc:Work
         rdf:about="">
        <dc:format>image/svg+xml</dc:format>
        <dc:type
           rdf:resource="http://purl.org/dc/dcmitype/StillImage" />
        <dc:title></dc:title>
      </cc:Work>
    </rdf:RDF>
  </metadata>
  <g
     transform="translate(-90.63352,-28.48033)"
     id="layer1">
    <g
       transform="translate(-31.42857,-208.57143)"
       id="g4147">
      <path
         id="path4151"
         d="m 122.06209,458.0765 0,-221.02474 225.79506,0 225.79506,0 0,221.02474 0,221.02473 -225.79506,0 -225.79506,0 0,-221.02473 z"
         style="fill:#ffffff" />
      <path
         id="path4149"
         d="m 339.11157,674.34417 c -2.6433,-3.00228 -3.97527,-15.74863 -3.97527,-38.04157 l 0,-33.52646 12.72085,0 12.72085,0 0,33.61939 c 0,24.89651 -1.17877,34.79813 -4.54316,38.16254 -5.69772,5.6977 -11.78624,5.62077 -16.92327,-0.21402 z M 223.82888,651.18854 c 0,-5.01201 7.87945,-22.26772 18.21942,-39.89983 17.20065,-29.33116 18.75664,-31.01572 27.82686,-30.12618 16.02861,1.57198 14.52,13.41849 -6.19005,48.60786 -17.05177,28.97341 -18.268,30.24957 -28.82952,30.24957 -9.93498,0 -11.02671,-0.87437 -11.02671,-8.83142 z m 206.73754,-22.9292 c -19.19646,-33.54523 -20.42084,-45.5678 -4.79407,-47.07442 8.9387,-0.86181 10.59402,0.88661 26.23675,27.71259 10.18755,17.47078 16.69611,32.39612 16.69611,38.28733 0,8.87369 -0.8813,9.65491 -10.89175,9.65491 -10.38094,0 -11.65875,-1.34034 -27.24704,-28.58041 z M 144.32357,569.56376 c 0,-10.54676 1.16755,-11.61194 31.63818,-28.86457 36.69357,-20.77608 46.27702,-21.84344 46.27702,-5.15409 0,10.13611 -1.52128,11.56349 -29.65726,27.82685 -17.41803,10.0681 -33.49541,17.14271 -38.9576,17.14271 -8.47972,0 -9.30034,-0.96625 -9.30034,-10.9509 z m 354.59366,-7.76624 c -23.99057,-14.13462 -25.4417,-15.61548 -25.4417,-25.96308 0,-16.62416 9.08714,-15.82113 44.37576,3.92152 28.44766,15.91536 30.22438,17.51338 30.28977,27.2428 0.0665,9.88371 -0.45204,10.32373 -11.85634,10.062 -8.15521,-0.187 -19.96973,-5.01294 -37.36749,-15.26324 z M 329.48349,480.15765 c -3.88742,-2.72286 -7.07637,-8.08947 -7.08656,-11.9258 -0.0147,-5.5156 -6.99257,-10.96789 -33.34739,-26.05642 -32.96832,-18.87485 -33.32935,-19.21028 -33.3737,-31.00706 -0.0432,-11.49787 0.35106,-11.9258 10.98834,-11.9258 7.53019,0 19.58048,5.04851 37.95423,15.90106 22.90049,13.52629 29.36194,15.90106 43.26476,15.90106 14.59755,0 20.7474,-2.56972 57.56168,-24.05225 47.99817,-28.00876 57.85018,-29.73713 59.4594,-10.43116 l 0.96939,11.62967 -46.23074,26.53288 c -37.27303,21.39184 -46.24171,27.88439 -46.28739,33.50802 -0.0754,9.28072 -11.55166,16.87645 -25.49836,16.87645 -6.21809,0 -14.48623,-2.2278 -18.37366,-4.95065 z M 126.03736,464.45018 c -5.0658,-5.75375 -4.99368,-7.3997 0.56789,-12.96127 3.39027,-3.39027 13.47804,-4.54316 39.75265,-4.54316 l 35.20949,0 0,11.13075 0,11.13074 -35.77738,-0.12097 c -26.79759,-0.0906 -36.77515,-1.25422 -39.75265,-4.63609 z m 368.10955,-6.37368 0,-11.13075 35.20949,0 c 26.2746,0 36.36239,1.15289 39.75265,4.54316 2.49873,2.49874 4.54316,5.46315 4.54316,6.58759 0,1.12443 -2.04443,4.08884 -4.54316,6.58758 -3.39026,3.39027 -13.47805,4.54316 -39.75265,4.54316 l -35.20949,0 0,-11.13074 z M 176.99453,376.15033 c -27.50523,-15.61686 -29.3478,-17.30779 -29.41696,-26.9961 -0.0689,-9.65756 0.6388,-10.33569 10.78712,-10.33569 7.17467,0 19.85735,5.18455 37.36749,15.27542 25.1405,14.48816 26.50659,15.84034 26.50659,26.23675 0,16.65211 -10.21533,15.70826 -45.24424,-4.18038 z m 296.12968,12.19278 c -4.73028,-12.32693 0.53637,-18.57228 30.00858,-35.58512 17.39735,-10.04262 33.50191,-17.11966 38.9576,-17.11966 8.47971,0 9.30034,0.96626 9.30034,10.9509 0,10.53669 -1.18047,11.61926 -31.20959,28.62191 -31.64502,17.91755 -43.90737,21.33956 -47.05693,13.13197 z M 243.7052,307.2555 c -10.18756,-17.47081 -16.69611,-32.39614 -16.69611,-38.28734 0,-8.87369 0.8813,-9.65492 10.89174,-9.65492 10.38095,0 11.65876,1.34034 27.24705,28.5804 19.19646,33.54523 20.42084,45.5678 4.79407,47.07443 -8.9387,0.86181 -10.59402,-0.88662 -26.23675,-27.71257 z m 173.05655,26.26269 c -5.44374,-5.44374 -0.69728,-20.00922 15.47506,-47.48836 16.83835,-28.61081 18.06951,-29.8968 28.62189,-29.8968 9.93499,0 11.02672,0.87439 11.02672,8.83141 0,5.00714 -7.85216,22.22121 -18.13312,39.75265 -15.64627,26.6806 -19.28081,30.92124 -26.50176,30.92124 -4.60276,0 -9.32272,-0.95406 -10.48879,-2.12014 z M 335.1363,279.75746 c 0,-33.53783 2.73086,-42.7057 12.72085,-42.7057 9.98999,0 12.72085,9.16787 12.72085,42.7057 l 0,33.61939 -12.72085,0 -12.72085,0 0,-33.61939 z"
         style="fill:#fefefe" />
    </g>
  </g>
</svg>
