<?xml version="1.0" encoding="UTF-8" standalone="no"?>
<svg
   xmlns:dc="http://purl.org/dc/elements/1.1/"
   xmlns:cc="http://creativecommons.org/ns#"
   xmlns:rdf="http://www.w3.org/1999/02/22-rdf-syntax-ns#"
   xmlns:svg="http://www.w3.org/2000/svg"
   xmlns="http://www.w3.org/2000/svg"
   version="1.1"
   id="svg2"
   viewBox="0 0 298.70861 297.63414"
   height="83.99897mm"
   width="84.302208mm">
  <defs
     id="defs4" />
  <metadata
     id="metadata7">
    <rdf:RDF>
      <cc:Work
         rdf:about="">
        <dc:format>image/svg+xml</dc:format>
        <dc:type
           rdf:resource="http://purl.org/dc/dcmitype/StillImage" />
        <dc:title></dc:title>
      </cc:Work>
    </rdf:RDF>
  </metadata>
  <g
     transform="translate(-58.618519,1.6167047)"
     id="layer1">
    <path
       id="path4147"
       d="m 199.90662,289.75748 c 0,-5.39555 2.12014,-6.36042 13.97597,-6.36042 7.68678,0 23.29216,-2.87748 34.67864,-6.39441 53.91423,-16.65241 94.45493,-69.79102 94.45493,-123.80651 0,-14.29488 1.23493,-18.5103 6.36043,-21.71122 6.08583,-3.80067 6.36042,-3.17606 6.36042,14.46791 0,70.95302 -52.50977,133.98441 -122.22719,146.71839 -27.8204,5.08143 -33.6032,4.58001 -33.6032,-2.91374 z M 170.921,287.72913 c -2.3775,-2.86471 -4.41932,-11.80906 -4.53737,-19.87633 -0.11805,-8.06727 -2.05629,-18.96105 -4.30718,-24.2084 -6.98854,-16.29186 -2.23827,-37.78339 15.05534,-68.11461 8.55835,-15.01046 20.4038,-36.58594 26.32321,-47.94552 6.11643,-11.73765 19.6863,-29.667624 31.43395,-41.533924 24.50142,-24.748881 66.19663,-58.718162 68.83477,-56.080019 2.49301,2.493007 -20.78951,45.371969 -41.87914,77.128003 -9.36707,14.10461 -26.64507,35.35385 -38.39554,47.22052 l -21.3645,21.57578 12.01038,11.00296 c 11.4612,10.49984 11.94768,11.75797 10.63902,27.51446 -1.78013,21.43313 -9.27372,32.34959 -30.38499,44.26405 -17.7842,10.03678 -18.3819,11.54024 -11.60681,29.19583 2.60562,6.79014 -6.15515,6.68431 -11.82114,-0.14279 z m 34.44947,-58.07093 c 9.56174,-14.23785 9.28949,-24.28808 -0.83771,-30.92368 -6.85082,-4.48882 -9.27219,-4.67369 -15.75717,-1.20304 -8.15228,4.36297 -17.49088,20.83497 -17.49088,30.8515 0,17.246 22.7877,18.09854 34.08576,1.27522 z m 8.8471,-78.23995 c 0,-8.06107 -12.63113,-10.55475 -15.50661,-3.06136 -2.83024,7.37549 0.63526,11.541 8.65122,10.3987 4.40961,-0.62838 6.85539,-3.24611 6.85539,-7.33734 z M 132.80743,275.4816 C 104.11008,260.53161 80.261591,232.0047 66.311691,195.94122 56.362621,170.22077 56.012041,124.86887 65.559271,98.607166 95.687091,15.734159 183.4568,-22.968684 265.89602,10.266878 c 9.18286,3.702092 16.69611,7.911501 16.69611,9.354242 0,6.218633 -7.37836,5.792087 -29.75732,-1.720284 C 161.06046,-12.906798 69.517921,51.385348 69.517921,146.64793 c 0,47.9027 27.26948,95.70568 67.579509,118.46585 6.93038,3.91309 11.9258,9.15257 11.9258,12.50846 0,3.17615 -0.35778,5.70818 -0.79506,5.62674 -0.43728,-0.0814 -7.37661,-3.57676 -15.42074,-7.76738 z M 112.13861,162.85083 c -14.164879,-6.43293 -17.178989,-11.1991 -17.178989,-27.16486 0,-36.812374 65.163909,-45.922714 79.577409,-11.12544 4.36418,10.53606 2.29921,25.94517 -4.962,37.02717 -4.16723,6.36 -7.39852,7.31254 -24.60038,7.25188 -12.3882,-0.0437 -24.68296,-2.28605 -32.83604,-5.98875 z m 45.4368,-18.078 c 5.77188,-7.89351 5.22628,-12.96834 -2.19176,-20.38638 -9.27758,-9.27758 -29.81545,-8.63621 -39.69116,1.2395 -8.90295,8.90295 -7.65185,19.96377 2.76397,24.43596 10.45594,4.48942 34.32893,1.26167 39.11895,-5.28908 z m 97.69021,-4.82927 c 8.03312,-8.93476 14.60567,-17.87984 14.60567,-19.87796 0,-2.17336 14.76192,-6.00577 36.74291,-9.53899 20.20861,-3.24833 39.88617,-6.69223 43.72792,-7.65312 l 6.985,-1.74706 -6.35656,7.1893 c -10.4512,11.82037 -30.58444,21.92067 -70.27423,35.25469 -20.65741,6.93998 -38.11636,12.61815 -38.79765,12.61815 -0.6813,0 5.33383,-7.31025 13.36694,-16.24501 z m 66.4351,-66.759175 c -9.19485,-14.308719 -10.93006,-25.12303 -4.03113,-25.12303 1.42717,0 7.69608,8.155403 13.93093,18.123119 8.35655,13.359715 10.30169,18.780094 7.4006,20.622682 -5.92496,3.76315 -6.33625,3.43929 -17.3004,-13.622771 z"
       style="fill:#826550;fill-opacity:1" />
  </g>
</svg>
