<?xml version="1.0" encoding="UTF-8" standalone="no"?>
<svg
   xmlns:dc="http://purl.org/dc/elements/1.1/"
   xmlns:cc="http://creativecommons.org/ns#"
   xmlns:rdf="http://www.w3.org/1999/02/22-rdf-syntax-ns#"
   xmlns:svg="http://www.w3.org/2000/svg"
   xmlns="http://www.w3.org/2000/svg"
   version="1.1"
   id="svg2"
   viewBox="0 0 299.60644 288.21082"
   height="81.3395mm"
   width="84.555595mm">
  <defs
     id="defs4" />
  <metadata
     id="metadata7">
    <rdf:RDF>
      <cc:Work
         rdf:about="">
        <dc:format>image/svg+xml</dc:format>
        <dc:type
           rdf:resource="http://purl.org/dc/dcmitype/StillImage" />
        <dc:title></dc:title>
      </cc:Work>
    </rdf:RDF>
  </metadata>
  <g
     transform="translate(-63.794065,-8.8510156)"
     id="layer1">
    <path
       id="path4185"
       d="m 142.65271,293.24558 c -6.09432,-6.09432 -4.60163,-21.08108 2.54416,-25.5437 6.04759,-3.77678 6.36043,-7.41634 6.36043,-73.99694 0,-66.5806 -0.31284,-70.22016 -6.36043,-73.99694 -7.14579,-4.46262 -8.63848,-19.44938 -2.54416,-25.543693 2.42014,-2.42015 14.92699,-3.85164 34.18728,-3.91297 23.7801,-0.0757 28.99073,-0.85167 24.0106,-3.57558 -10.26683,-5.61552 -14.31095,-12.68112 -14.31095,-25.00309 0,-15.16243 11.65809,-26.66031 27.0318,-26.66031 28.56607,0 37.8964,37.89344 12.72085,51.6634 -4.98013,2.72391 0.2305,3.49987 24.0106,3.57558 19.26029,0.0613 31.76714,1.49282 34.18728,3.91297 6.09431,6.094313 4.60162,21.081073 -2.54417,25.543693 -6.04758,3.77678 -6.36042,7.41634 -6.36042,73.99694 0,66.5806 0.31283,70.22016 6.36042,73.99694 7.14579,4.46262 8.63848,19.44938 2.54417,25.5437 -2.72705,2.72704 -22.9682,3.81625 -70.91873,3.81625 -47.95054,0 -68.19169,-1.08921 -70.91873,-3.81625 z m 113.85159,-49.36043 0,-21.37456 -20.67138,20.48764 c -11.36925,11.2682 -20.67137,20.88675 -20.67137,21.37456 0,0.4878 9.30212,0.88692 20.67137,0.88692 l 20.67138,0 0,-21.37456 z m 0,-92.7477 0,-23.57458 -42.6224,41.02156 -42.62241,41.02157 -0.31046,25.39751 -0.31046,25.39751 42.93287,-42.84449 42.93286,-42.84449 0,-23.57459 z m -44.52297,-28.10036 c 0,-0.4878 -9.30212,-0.88692 -20.67138,-0.88692 l -20.67138,0 0,21.37456 0,21.37456 20.67138,-20.48763 c 11.36926,-11.26821 20.67138,-20.88676 20.67138,-21.37457 z m -107.904,133.16332 C 36.447854,184.45769 56.638394,69.891457 144.67313,25.849467 c 45.05325,-22.5392199 91.03129,-22.6644999 136.6846,-0.37243 88.9509,43.43384 109.75766,158.534713 41.70781,230.723373 -14.67094,15.56323 -16.32436,16.49895 -19.44172,11.00264 -2.67849,-4.72254 -2.25559,-6.65162 1.9775,-9.02059 2.96154,-1.65735 11.7152,-11.61287 19.45258,-22.12334 66.50358,-90.33872 1.71706,-215.675733 -111.48246,-215.675733 -24.59869,0 -54.0081,7.56727 -71.09617,18.29361 -55.294316,34.70873 -79.464536,97.298263 -60.848656,157.569473 6.32953,20.49263 29.158556,55.91642 39.914936,61.93599 4.2331,2.36897 4.65599,4.29805 1.9775,9.02059 -3.11736,5.49631 -4.77077,4.56059 -19.44172,-11.00264 z"
       style="fill:#826550;fill-opacity:1" />
  </g>
</svg>
