<svg xmlns="http://www.w3.org/2000/svg" viewBox="0 0 299.84982 278.63066" height="297.206" width="319.84"><path d="M94.333 274.123c4.607-4.551 22.008-9.55 45.317-13.02l12.04-1.791-.91-30.842-.907-30.842-24.018-.917-24.019-.918-10.378 23.617c-15.568 35.424-18.69 37.496-54.821 36.382-27.67-.852-29.945-1.417-30.836-7.66-1.226-8.595 6.05-10.65 37.897-10.708l24.214-.043 8.182-11.926c9.5-13.846 14.226-29.417 8.93-29.417-7.905 0-16.247-12.864-16.247-25.052 0-14.276 4.503-19.053 20.388-21.63 9.117-1.48 11.414-3.275 11.414-8.917 0-11.414 13.274-28.115 28.648-36.046 12.648-6.525 17.82-7.241 45.126-6.254l30.842 1.114 5.058-22.736c6.157-27.675 16.209-48.123 27.81-56.575 11.553-8.417 32.097-4.351 33.662 6.662 1.243 8.74-34.112 118.477-47.593 147.725l-9.881 21.437-21.059.931-21.058.931-.905 30.608c-.874 29.544-.653 30.674 6.36 32.553 3.996 1.07 10.128 1.974 13.626 2.008 9.944.095 28.29 5.854 35.13 11.026 5.541 4.19-1.512 4.71-65.228 4.8-62.354.088-70.849-.484-66.784-4.5zm108.78-131.353c-.924-11.807-3.126-22.403-4.892-23.547-6.944-4.496-37.234-6.111-50.023-2.668-14.396 3.877-28.537 16.555-28.537 25.585 0 4.346 3.735 6.104 16.696 7.86 12.973 1.758 65.848 12.618 68.008 13.968.236.147-.327-9.392-1.252-21.198zm34.988 119.393c-3.135-3.777-.897-7.658 12.325-21.375 34.35-35.638 46.28-85.609 31.811-133.244-3.71-12.216-6.746-24.612-6.746-27.547 0-10.98 8.188-2.088 14.827 16.104 19.844 54.37 8.41 109.659-31.56 152.6-14.15 15.202-17.436 17.343-20.657 13.462zM12.13 206.26c-17.235-40.066-16.06-84.762 3.26-124.007C42.91 26.348 110.16-8.363 171.367 1.745c32.894 5.433 51.04 14.469 41.232 20.531-1.357.839-11.017-1.37-21.467-4.91-29.044-9.835-69.022-7.337-97.736 6.108C69.459 34.683 41.204 59.464 29.404 79.6c-20.48 34.948-23.45 85.603-7.11 121.293 9.92 21.671 9.797 20.588 2.352 20.588-4.095 0-8.025-4.779-12.517-15.22z" fill="#826550"/></svg>