<svg xmlns="http://www.w3.org/2000/svg" preserveAspectRatio="xMidYMid" width="15" height="17" viewBox="0 0 15 17"><defs><style>.cls-1{fill:#d1d1d1;filter:url(#color-overlay-1);fill-rule:evenodd}</style><filter id="color-overlay-1" filterUnits="userSpaceOnUse"><feFlood/><feComposite operator="in" in2="SourceGraphic"/><feBlend in2="SourceGraphic" result="solidFill"/></filter></defs><path d="M15.002 6.97v8.61c0 1.305-1.247 1.418-1.247 1.418H1.187c-1.572 0-1.139-1.418-1.139-1.418V6.53c0-1.361 1.258-1.079 1.258-1.079h.63c0-3.152 2.442-5.452 5.453-5.452 3.012 0 5.615 2.3 5.615 5.452l.751-.013c1.355 0 1.247 1.532 1.247 1.532zm-8.463 4.501c.199.071-.647 3.535-.647 3.535l2.64-.019s-.764-3.5-.661-3.541c.738-.295 1.263-1.043 1.263-1.919 0-1.134-.878-2.053-1.962-2.053-1.083 0-1.961.919-1.961 2.053 0 .902.556 1.668 1.328 1.944zm.996-10.175c-2.365 0-4.282 1.667-4.282 4.142h8.564c0-2.475-1.917-4.142-4.282-4.142z" class="cls-1"/></svg>