<svg xmlns="http://www.w3.org/2000/svg" preserveAspectRatio="xMidYMid" width="14.969" height="15" viewBox="0 0 14.969 15"><defs><style>.cls-1{fill:#d1d1d1;filter:url(#color-overlay-1);fill-rule:evenodd}</style><filter id="color-overlay-1" filterUnits="userSpaceOnUse"><feFlood/><feComposite operator="in" in2="SourceGraphic"/><feBlend in2="SourceGraphic" result="solidFill"/></filter></defs><path d="M6.837.227c-.521 0-.441.229-.721.269-.281.039.056-.111-.786.046C4.488.7 4.19 1.766 4.15 2.161c-.04.395-.05 1.504-.023 2.096.08.356-.201.356-.201.356-.505-.033-.278 1.515-.278 1.515.073.382-.026.572.721.867.356.998 1.287 1.526 1.287 1.526s.004.616.018 1.072c-.076-.037.26 1.165-2.062 1.502-2.321.337-2.766 1.077-3.204 1.489-.437.412-.42 2.41-.42 2.41l14.983.007s-.112-2.005-.549-2.417c-.438-.412-.915-1.152-3.236-1.489-2.257-.321-1.886-1.507-1.902-1.578.004-.179.028-.941.028-.941s.789-.613 1.145-1.61c.56-.348.773-.397.866-.798 0 0 .165-1.564-.364-1.556 0 0-.251.08-.171-.276.08-.355.054-1.465.014-1.859-.041-.395.02-1.523-.822-1.681C9.405.69 9.33.794 9.049.755S8.434 0 7.912 0L6.837.227z" class="cls-1"/></svg>